<?xml version="1.0" encoding="utf-8"?>
<!-- Generator: Adobe Illustrator 14.0.0, SVG Export Plug-In . SVG Version: 6.00 Build 43363)  -->
<!DOCTYPE svg PUBLIC "-//W3C//DTD SVG 1.0//EN" "http://www.w3.org/TR/2001/REC-SVG-20010904/DTD/svg10.dtd">
<svg version="1.0" xmlns="http://www.w3.org/2000/svg" xmlns:xlink="http://www.w3.org/1999/xlink" x="0px" y="0px"
	 width="116.589px" height="21.764px" viewBox="0 0 116.589 21.764" enable-background="new 0 0 116.589 21.764"
	 xml:space="preserve">
	  <path fill="#000000" d="M116.589,5.019h-4.33l-3.33,11.526h-0.045l-3.309-11.526h-4.308l5.484,16.435h4.332L116.589,5.019z M100.712,5.019h-4.508
		  l-2.466,6.597l-2.442-6.597h-4.554l4.908,10.46v5.975h4.197v-5.975L100.712,5.019z M85.033,21.453V5.019h-4.02l0.178,10.282
		  l-0.044,0.045L74.794,5.019h-3.619v16.435h4.02l-0.111-9.972l0.045-0.022l6.263,9.994H85.033z M59.405,0h-3.531v3.353h3.531V0z
		   M64.58,0h-3.531v3.353h3.531V0z M64.712,13.258c0,2.51-1.776,4.819-4.418,4.819c-2.732,0-4.532-2.266-4.532-4.886
		  c0-2.576,1.799-4.797,4.487-4.797C62.936,8.395,64.712,10.704,64.712,13.258 M68.91,13.235c0-4.841-3.886-8.527-8.683-8.527
		  c-2.798,0-5.263,1.154-6.951,3.376c-0.422,0.555-0.822,1.199-1.066,1.843c-0.444,1.133-0.644,2.287-0.644,3.509
		  c0,4.73,3.997,8.328,8.639,8.328C65.024,21.764,68.91,18.1,68.91,13.235 M51.322,21.453l-5.796-8.239l5.441-8.195h-4.398
		  l-4.641,7.396h-0.044V5.019h-4.198v16.435h4.198v-7.107h0.044l4.486,7.107H51.322z"/>
	  <path fill="#00B3F0" d="M31.712,15.635c0,1.288-0.422,2.442-1.932,2.442c-1.443,0-1.932-1.178-1.932-2.442v-4.797
		  c0-1.244,0.489-2.443,1.932-2.443c1.51,0,1.932,1.155,1.932,2.443V15.635z M35.91,15.522v-4.573c0-2.577-1.155-4.664-3.554-5.708
		  c-0.777-0.333-1.665-0.533-2.509-0.533c-0.844,0-1.688,0.178-2.487,0.488c-2.488,0.999-3.709,3.109-3.709,5.753v4.573
		  c0,2.621,1.244,4.709,3.686,5.73c0.8,0.333,1.644,0.511,2.51,0.511c0.933,0,1.865-0.2,2.709-0.6
		  C34.866,20.098,35.91,17.989,35.91,15.522 M17.1,15.635c0,1.288-0.422,2.442-1.932,2.442c-1.444,0-1.933-1.178-1.933-2.442v-4.797
		  c0-1.244,0.489-2.443,1.933-2.443c1.51,0,1.932,1.155,1.932,2.443V15.635z M21.297,15.522v-4.573c0-2.577-1.155-4.664-3.553-5.708
		  c-0.778-0.333-1.666-0.533-2.51-0.533c-0.844,0-1.688,0.178-2.487,0.488c-2.487,0.999-3.709,3.109-3.709,5.753v4.573
		  c0,2.621,1.244,4.709,3.687,5.73c0.799,0.333,1.643,0.511,2.509,0.511c0.933,0,1.866-0.2,2.71-0.6
		  C20.253,20.098,21.297,17.989,21.297,15.522 M6.884,21.453V5.019H0V8.55h2.687v12.903H6.884z"/>
</svg>
