<?xml version="1.0" encoding="utf-8"?>
<!-- Generator: Adobe Illustrator 14.0.0, SVG Export Plug-In . SVG Version: 6.00 Build 43363)  -->
<!DOCTYPE svg PUBLIC "-//W3C//DTD SVG 1.0//EN" "http://www.w3.org/TR/2001/REC-SVG-20010904/DTD/svg10.dtd">
<svg version="1.0" xmlns="http://www.w3.org/2000/svg" xmlns:xlink="http://www.w3.org/1999/xlink" x="0px" y="0px"
	 width="33.872px" height="18.629px" viewBox="0 0 33.872 18.629" enable-background="new 0 0 33.872 18.629" xml:space="preserve">
<g>
	<path d="M33.424,8.794c-0.861-1.188-1.646-2.146-2.478-3.013c-1.08-1.13-2.195-2.062-3.408-2.853
		c-1.414-0.919-2.963-1.63-4.604-2.111C21.094,0.275,19.075,0,16.937,0c-2.142,0-4.158,0.275-6,0.818
		C9.295,1.299,7.747,2.01,6.332,2.929C5.119,3.718,4.006,4.652,2.924,5.782C2.097,6.648,1.31,7.605,0.449,8.794L0,9.316l0.449,0.519
		c0.859,1.189,1.646,2.146,2.475,3.014c1.082,1.131,2.195,2.062,3.408,2.852c1.414,0.919,2.963,1.63,4.604,2.113
		c1.842,0.543,3.858,0.816,6,0.816c2.139,0,4.158-0.273,5.998-0.816c1.641-0.483,3.188-1.194,4.604-2.113
		c1.213-0.789,2.328-1.721,3.408-2.852c0.83-0.865,1.615-1.822,2.478-3.014l0.448-0.519L33.424,8.794z M3.016,9.315
		c2.242-2.954,4.947-5.827,9.776-6.873c-0.569,0.341-1.098,0.751-1.573,1.228c-0.742,0.742-1.326,1.607-1.732,2.57
		C9.065,7.238,8.85,8.296,8.85,9.386c0,1.093,0.215,2.151,0.637,3.149c0.406,0.963,0.99,1.828,1.732,2.57
		c0.373,0.373,0.776,0.705,1.209,0.996C7.826,14.994,5.199,12.192,3.016,9.315z M16.938,15.45c-3.342,0-6.062-2.719-6.062-6.062
		c0-3.342,2.722-6.061,6.062-6.061s6.061,2.719,6.061,6.061C22.998,12.731,20.28,15.45,16.938,15.45z M21.446,16.104
		c0.432-0.291,0.838-0.623,1.211-0.996c0.742-0.742,1.324-1.607,1.732-2.57c0.422-0.998,0.637-2.057,0.637-3.148
		s-0.215-2.149-0.637-3.147c-0.408-0.963-0.99-1.828-1.732-2.57c-0.477-0.477-1.004-0.887-1.576-1.228
		c4.83,1.046,7.537,3.919,9.779,6.873C28.676,12.192,26.049,14.994,21.446,16.104z"/>
	<path d="M16.865,4.75c-0.641,0.003-1.25,0.139-1.802,0.378l1.996,4.479l-4.554-1.581c-0.123,0.415-0.187,0.854-0.185,1.308
		c0.011,2.52,2.062,4.553,4.582,4.542c2.52-0.011,4.554-2.062,4.543-4.583C21.437,6.774,19.385,4.74,16.865,4.75"/>
</g>
</svg>
