<?xml version="1.0" encoding="utf-8"?>
<!-- Generator: Adobe Illustrator 14.0.0, SVG Export Plug-In . SVG Version: 6.00 Build 43363)  -->
<!DOCTYPE svg PUBLIC "-//W3C//DTD SVG 1.0//EN" "http://www.w3.org/TR/2001/REC-SVG-20010904/DTD/svg10.dtd">
<svg version="1.0" xmlns="http://www.w3.org/2000/svg" xmlns:xlink="http://www.w3.org/1999/xlink" x="0px" y="0px"
	 width="83.925px" height="20.864px" viewBox="0 0 83.925 20.864" enable-background="new 0 0 83.925 20.864" xml:space="preserve">
<g>
	<path d="M61.112,13.026h-1.71c-0.844,1.621-2.486,2.465-4.285,2.465c-2.821,0-5.02-2.178-5.02-4.997
		c0-2.798,2.242-4.952,5.02-4.952c1.82,0,3.441,0.979,4.285,2.576h1.71c-0.999-2.488-3.397-3.975-6.041-3.975
		c-3.553,0-6.528,2.818-6.528,6.395c0,3.621,2.954,6.354,6.528,6.354C57.892,16.889,59.868,15.467,61.112,13.026"/>
	<rect x="44.633" y="0.166" width="1.556" height="16.435"/>
	<path d="M35.906,4.143c-3.531,0-6.329,2.951-6.329,6.461c0,3.42,2.908,6.285,6.329,6.285c3.486,0,6.373-2.888,6.373-6.373
		C42.28,7.051,39.37,4.143,35.906,4.143z M35.928,15.491c-2.688,0-4.798-2.266-4.798-4.908c0-2.688,2.043-5.041,4.798-5.041
		c2.664,0,4.797,2.266,4.797,4.908C40.725,13.18,38.726,15.491,35.928,15.491z"/>
	<path d="M21.249,4.143c-1.91,0-3.62,0.864-4.729,2.44h-0.045V4.452H14.92v16.412h1.555v-6.395h0.045
		c1.065,1.555,2.842,2.422,4.729,2.422c3.643,0,6.528-2.732,6.528-6.396C27.778,6.852,24.824,4.143,21.249,4.143z M21.249,15.491
		c-2.754,0-4.864-2.242-4.864-4.953c0-2.709,2.11-4.996,4.864-4.996c2.888,0,4.975,2.154,4.975,5.02
		C26.223,13.403,24.091,15.491,21.249,15.491z"/>
	<path d="M82.425,0v2.283l-2.76-1.115l-5.669,14.033l2.146,0.865h-3.327L78.34,2.388l-3.021-1.22l-5.669,14.033l2.146,0.865h-3.327
		l5.526-13.68l-3.021-1.22L65.306,15.2l2.146,0.865h-1.697v1.5h16.671v1.727h1.5V0H82.425z M77.158,16.067l5.267-13.035v13.035
		H77.158z"/>
	<polygon points="0,9.739 8.192,17.932 8.192,1.547 	"/>
</g>
</svg>
